<?xml version="1.0" encoding="iso-8859-1"?>
<!-- Generator: Adobe Illustrator 19.0.0, SVG Export Plug-In . SVG Version: 6.00 Build 0)  -->
<svg version="1.1" id="Layer_1" xmlns="http://www.w3.org/2000/svg" xmlns:xlink="http://www.w3.org/1999/xlink" x="0px" y="0px"
	 viewBox="0 0 512.061 512.061" style="enable-background:new 0 0 512.061 512.061;" xml:space="preserve">
<g>
	<g>
		<path d="M488.312,3.969C484.6-0.618,477.88-1.301,473.315,2.39c-4.587,3.712-5.291,10.432-1.579,15.019
			c19.819,24.448,19.179,94.592,18.965,117.632c-0.171,18.261-7.808,35.605-21.312,50.176V151.51
			c0-29.547-15.168-58.261-41.621-78.827l-26.496-20.608c-4.629-3.627-11.349-2.795-14.955,1.856
			c-3.627,4.672-2.795,11.371,1.877,14.976l26.496,20.629c21.504,16.725,33.365,38.741,33.365,61.973v51.264
			c-0.576,0.341-1.088,0.768-1.685,1.131c-14.528,8.768-28.267,16.939-40.981,24.533v-15.061c0-24.789-17.621-67.477-49.472-79.872
			c-5.44-2.155-11.648,0.576-13.803,6.08c-2.155,5.483,0.576,11.669,6.059,13.803c21.568,8.384,35.883,41.664,35.883,59.989v27.776
			c-19.52,11.691-35.947,21.76-48.235,30.101l-27.648-52.203c-2.773-5.227-9.237-7.168-14.443-4.437
			c-5.184,2.773-7.189,9.216-4.437,14.421l25.6,48.341H205.923c-3.072-2.133-6.677-4.395-10.837-6.741
			c14.507-9.963,41.984-32.832,39.573-61.717c-0.469-5.888-5.824-10.347-11.52-9.728c-5.867,0.491-10.219,5.653-9.728,11.52
			c1.707,20.331-26.283,40.576-37.227,46.677c-0.981,0.555-1.707,1.323-2.432,2.091c-6.656-3.285-13.717-6.699-21.461-10.432
			c-7.808-3.755-15.957-7.701-24.235-11.755v-40.128c0-5.888-4.779-10.667-10.667-10.667s-10.667,4.779-10.667,10.667v29.419
			c-13.717-7.061-27.584-14.571-41.003-22.677c-0.576-0.363-1.088-0.768-1.664-1.131V170.71c0-22.592,11.904-64.469,33.365-81.173
			c4.651-3.627,5.504-10.325,1.877-14.976c-3.648-4.651-10.347-5.483-14.955-1.877C55.95,94.742,42.723,144.214,42.723,170.71
			v14.528c-13.525-14.571-21.163-31.936-21.333-50.176C20.622,52.481,35.363,26.945,47.864,20.054
			c5.163-2.837,7.04-9.323,4.181-14.485C49.187,0.385,42.637-1.45,37.56,1.366C3,20.396-0.413,86.891,0.035,135.254
			c0.299,30.869,16.384,59.435,44.373,79.979c1.579,2.581,4.117,4.352,7.211,4.885c1.045,0.661,1.963,1.408,3.051,2.069
			c29.611,17.856,62.187,33.515,88.363,46.101c21.653,10.411,40.149,19.392,50.091,26.176l37.611,188.096
			c3.435,17.088,18.581,29.483,35.989,29.483c17.408,0,32.555-12.395,35.989-29.483l37.696-188.48
			c15.168-11.179,41.771-27.051,75.093-46.869c12.992-7.723,27.029-16.085,41.877-25.045c1.045-0.64,1.941-1.365,2.965-2.005
			c3.221-0.512,5.867-2.347,7.445-5.056c27.904-20.544,43.904-49.045,44.224-79.872C512.462,88.278,510.136,30.934,488.312,3.969z
			 M281.784,478.358c-1.429,7.147-7.765,12.352-15.061,12.352s-13.632-5.205-15.061-12.352L215.736,298.71h101.973L281.784,478.358z
			"/>
	</g>
</g>
<g>
</g>
<g>
</g>
<g>
</g>
<g>
</g>
<g>
</g>
<g>
</g>
<g>
</g>
<g>
</g>
<g>
</g>
<g>
</g>
<g>
</g>
<g>
</g>
<g>
</g>
<g>
</g>
<g>
</g>
</svg>
